<svg version="1.2" xmlns="http://www.w3.org/2000/svg" viewBox="0 0 460 186" width="460" height="186">
	<style>
		.s0 { fill: #8ba0aa } 
		.s1 { fill: #29abe2 } 
	</style>
	<g id="Layer 1">
		<g id="Folder 1">
			<path id="Path 0" fill-rule="evenodd" class="s0" d="m152.22 29c-9.47 15.95-17.11 29.2-16.97 29.45 0.14 0.25 14.65-1.11 32.25-3.02 17.6-1.91 32.08-3.58 32.18-3.7 0.09-0.13-6.36-11.48-14.34-25.23-7.98-13.75-14.82-25.34-15.21-25.75-0.38-0.42-8.44 12.29-17.91 28.25zm-151.24 68.75c-0.01 0.41 6.76 20.1 15.06 43.75 8.3 23.65 15.4 43.33 15.77 43.74 0.38 0.41 7.32-11.52 15.42-26.5 8.1-14.98 14.74-27.69 14.75-28.24 0.01-0.55-13.48-8.31-29.98-17.25-16.5-8.94-30.22-16.25-30.5-16.25-0.27 0-0.51 0.34-0.52 0.75zm430.52 2.62c-2.52 1.48-4.83 3.97-6.24 6.74-1.31 2.58-2.24 6.25-2.25 8.89-0.02 2.72 0.87 6.28 2.23 8.99 1.24 2.47 3.84 5.52 5.76 6.78 2.59 1.69 4.93 2.28 9 2.26 3.43-0.01 6.81-0.73 9-1.9 2.12-1.14 4.39-3.6 5.77-6.26 1.25-2.4 2.26-5.83 2.25-7.62l-0.02-3.25h-16c0 5.86 0.21 6.01 4.6 6.25l4.6 0.25c-3.31 4.34-5.58 5.76-7.45 6.11-2.07 0.38-4.43 0.02-6.5-1-2.04-1.01-3.84-3-4.84-5.36-1.07-2.52-1.36-4.9-0.89-7.25 0.39-1.93 1.44-4.54 2.34-5.81 0.9-1.26 3.1-2.73 4.89-3.25 1.79-0.51 4.26-0.66 5.5-0.33 1.24 0.34 3.15 1.48 4.25 2.54 1.75 1.68 2.34 1.76 4.78 0.63 1.53-0.7 2.78-1.73 2.77-2.28 0-0.55-1.02-1.96-2.27-3.13-1.26-1.16-3.29-2.63-4.53-3.25-1.24-0.61-4.61-1.12-7.5-1.11-3.7 0.01-6.43 0.7-9.25 2.36z"/>
			<path id="Path 1" fill-rule="evenodd" class="s1" d="m99.18 34.75c-2.86 8.11-5.19 15.2-5.19 15.75 0.01 0.55 5 5.27 11.09 10.5 6.09 5.22 11.49 9.61 12 9.75 0.51 0.14 0.72-0.54 0.48-1.5-0.25-0.96-2.93-12.44-5.97-25.5-3.04-13.06-5.91-23.75-6.37-23.75-0.46 0-3.18 6.64-6.04 14.75z"/>
			<path id="Path 2" fill-rule="evenodd" class="s0" d="m56.42 62.02c-13.7 8.74-25.06 16.25-25.22 16.69-0.17 0.43 6.81 7.22 15.5 15.08 8.69 7.85 15.89 14.15 16.01 14 0.11-0.16 4.42-13.97 9.57-30.68 5.15-16.72 9.29-30.53 9.21-30.69-0.08-0.16-11.36 6.86-25.07 15.6zm133.58 26.18c-0.77 0.66-1.32 2.35-1.22 3.75 0.1 1.4 0.76 3.12 1.45 3.82 0.7 0.69 2.42 1.26 3.82 1.25 1.4-0.01 3.1-0.58 3.77-1.27 0.67-0.69 1.21-2.38 1.21-3.75 0-1.38-0.57-3.07-1.26-3.77-0.7-0.69-2.42-1.26-3.82-1.25-1.4 0.01-3.18 0.56-3.95 1.22zm2.44 3.05c0.36-0.69 1.09-1.25 1.61-1.25 0.52 0 1.22 0.56 1.56 1.25 0.33 0.69 0.1 1.7-0.5 2.25q-1.11 1-2.22 0c-0.6-0.55-0.81-1.56-0.45-2.25zm62.06 9.12c-2.52 1.48-4.83 3.97-6.24 6.74-1.31 2.58-2.24 6.25-2.25 8.89-0.02 2.72 0.87 6.28 2.23 8.99 1.24 2.47 3.83 5.52 5.76 6.78 2.59 1.69 4.93 2.28 9 2.26 3.43-0.01 6.81-0.73 9-1.9 2.12-1.14 4.39-3.6 5.77-6.26 1.25-2.4 2.26-5.83 2.25-7.62l-0.02-3.25h-16c0 5.86 0.21 6.01 4.6 6.25l4.6 0.25c-3.31 4.34-5.58 5.76-7.45 6.11-2.07 0.38-4.43 0.02-6.5-1-2.04-1.01-3.84-3-4.84-5.36-1.07-2.52-1.36-4.9-0.89-7.25 0.39-1.93 1.44-4.54 2.34-5.81 0.9-1.26 3.1-2.73 4.89-3.25 1.79-0.51 4.26-0.66 5.5-0.33 1.24 0.34 3.15 1.48 4.25 2.54 1.75 1.68 2.34 1.76 4.78 0.63 1.53-0.7 2.78-1.73 2.77-2.28 0-0.55-1.02-1.96-2.27-3.13-1.26-1.16-3.29-2.63-4.53-3.25-1.24-0.61-4.61-1.12-7.5-1.11-3.7 0.01-6.43 0.7-9.25 2.36zm-157.97 12.33c-3.19 7.59-6.41 15.26-7.16 17.05l-1.37 3.25c7.67 0 8.1-0.29 9.25-3.51l1.25-3.52 13.5 0.03c1.93 6.75 2.29 7 6 7 2.2 0 4-0.11 3.99-0.25 0-0.14-3.07-7.68-6.83-16.75-6.55-15.83-6.95-16.51-9.83-16.8-2.97-0.3-3.06-0.15-8.8 13.5zm8.63-3.2l1.27 3c0.7 1.65 1.56 4.01 1.92 5.25 0.6 2.07 0.32 2.25-3.35 2.25-3.87 0-3.97-0.08-3-2.5 0.55-1.38 1.48-3.74 2.08-5.25zm20.84 6.5v17h7v-34h-7zm26 0v17h7l0.5-12.5c7.94 12.48 8.07 12.58 12.5 12.58 3.58 0.01 4.28-0.26 3.41-1.29-0.61-0.71-2.97-3.88-5.25-7.04-2.29-3.16-3.69-5.75-3.11-5.75 0.57 0 2.15-1.13 3.5-2.5 1.87-1.91 2.45-3.57 2.45-7 0-3.67-0.55-5.06-3-7.5-2.8-2.8-3.5-3-10.5-3h-7.5zm7-6c0-4.51 0.22-5 2.25-5.02 1.24-0.01 2.82 0.56 3.52 1.25 0.7 0.7 1.26 2.28 1.25 3.52-0.01 1.24-1.03 2.93-2.27 3.76-1.24 0.83-2.81 1.5-3.5 1.5q-1.25-0.01-1.25-5.01zm26.53 2.7c-3.18 7.59-6.41 15.26-7.16 17.05l-1.37 3.25c7.67 0 8.11-0.29 9.25-3.51l1.25-3.52 13.5 0.03c1.93 6.75 2.29 7 6 7 2.2 0 4-0.11 4-0.25-0.01-0.14-3.08-7.68-6.83-16.75-6.55-15.83-6.95-16.51-9.83-16.8-2.97-0.3-3.07-0.15-8.81 13.5zm8.63-3.2l1.27 3c0.7 1.65 1.56 4.01 1.92 5.25 0.6 2.07 0.33 2.25-3.35 2.25-3.86 0-3.96-0.08-3-2.5 0.55-1.38 1.49-3.74 2.08-5.25zm20.84 6.5v17c12.58 0 16.19-0.57 18.68-1.75 2.02-0.96 4.83-3.29 6.25-5.17 2.17-2.88 2.57-4.48 2.57-10.08 0-5.87-0.35-7.11-3-10.52-1.65-2.12-4.46-4.45-6.25-5.17-1.78-0.72-6.62-1.31-10.75-1.31h-7.5zm7.31-11.26l4.1 0.61c2.25 0.34 4.9 1.42 5.88 2.39 0.99 0.97 2.22 3.22 2.75 5.01 0.62 2.08 0.62 4.42 0 6.5-0.53 1.79-1.76 4.04-2.75 5.01-0.98 0.97-3.7 2.1-10.32 3.24l0.17-11.38zm64.7 11.26v17h7v-34h-7zm11.94-12.25c1.04 2.61 4.14 10.15 6.89 16.75 4.2 10.08 5.37 12.05 7.33 12.3 2.14 0.28 2.95-1.14 9.59-16.75l7.25-17.05-8.3 0.5-8.2 21.66-9-22.22-7.46 0.06zm34.06 12.25v17h7l0.5-21.16c16.38 18.73 19.07 21.16 21 21.16h2.5v-34h-7.17l-0.33 21.02c-16.36-18.59-19.08-21.02-21-21.02h-2.5zm39 0v17h7v-34h-7zm14 0v17h7l0.5-21.16c16.38 18.73 19.07 21.16 21 21.16h2.5v-34h-7.17l-0.33 21.02c-16.36-18.59-19.08-21.02-21-21.02h-2.5z"/>
		</g>
	</g>
</svg>